<svg xmlns="http://www.w3.org/2000/svg" data-name="Слой 1" viewBox="0 0 100 125" x="0px" y="0px"><title>иноп</title><g><path d="M48.15635,86.78171c0.02465-.024-0.37677.36549-1.02482,0.99423a4.66572,4.66572,0,0,1-.14-1.38985,32.48073,32.48073,0,0,0,1.14537-3.644c0.23007-1.42948-.2798-2.65268-1.977-2.81847a2.65841,2.65841,0,0,0-3.01974,2.25057,23.615,23.615,0,0,0-.27113,2.83437c-0.55552,4.39934-3.81768,5.67209-7.90623,3.70282-0.57518-.27705-1.07858-0.95646-1.63381-0.97832-2.53606-.09987-2.10338-1.67039-1.68188-3.203,0.38438-1.39751.96032-2.74451,1.3032-4.15a3.887,3.887,0,0,0-.36174-1.58609,8.00353,8.00353,0,0,0-1.43352.6009c-3.60155,2.39719-7.05439,5.05391-10.81391,7.16622-2.88987,1.62366-6.19289-.06778-6.30726-3.01629-0.12193-3.14406-.04627-6.28285,2.54162-8.84946,2.47378-2.45344,4.58484-5.275,6.82879-7.957A11.71878,11.71878,0,0,0,26.20684,60.488c0.27175-2.22018,1.05289-4.37311,1.43878-6.58548,0.52-2.98189.74228-6.019,1.33235-8.98465,1.10683-5.56254,2.389-11.0649,6.29992-15.53554a9.77333,9.77333,0,0,1,6.60474-3.39706,2.77037,2.77037,0,0,0,1.87147-1.4469c0.386-.91388.29147-1.80184-1.15958-2.263-2.27494-.72294-3.09932-2.71239-3.15-5.00553a7.26017,7.26017,0,0,1,.16992-1.52477c0.45637-2.35319.05868-5.3027,3.01381-6.23309,2.9594-.93175,8.2413,1.27713,9.6391,3.80766a3.354,3.354,0,0,1,.05644,2.44223c-0.88087,2.50289-2.06364,4.83971-4.6115,6.13417a1.075,1.075,0,0,0-.53133.8313c0.56787,1.779-.50748,2.6901-1.74847,3.54679a8.13851,8.13851,0,0,1-3.90788,1.49836c-1.85644.21518-3.58748,1.51175-5.37289,2.33973q0.16064,0.34176.32122,0.68352l1.55538-.71436L38.40273,30.514c-0.97736.96868-1.999,1.89743-2.91954,2.91736a10.85452,10.85452,0,0,0-2.46733,3.1437A66.22036,66.22036,0,0,0,29.266,58.236a3.98418,3.98418,0,0,1-.165,1.29806c-2.49623,6.8709-5.37117,13.55267-10.87564,18.635a4.17355,4.17355,0,0,0-1.30058,4.93123c0.57869-1.63044,1.12752-3.17691,1.6764-4.72337l0.449,0.14241c-0.23177,1.329-.46348,2.658-0.788,4.51939l1.50038-1.96356,0.51291,0.21125q-0.582,1.5404-1.16393,3.08082L19.57118,84.644c0.66762-1.14046,1.33518-2.28092,1.966-3.35864,0.33178,0.19986.64118,0.42144,0.97976,0.58126,0.411,0.194.84665,0.33583,1.80673,0.70721A58.5832,58.5832,0,0,0,28.39642,77.879c0.96446-1.3445,1.93583-2.082,3.62254-1.75976,1.72875,0.33027,2.24987,1.58183,2.69925,3.05527,0.33323,1.09254,1.03185,2.06953,1.41385,3.15228,0.54,1.53021.9381,3.11052,1.39726,4.67091,3.04279-.92979,3.76566-2.24407,3.5736-5.10293-0.08773-1.30539.17328-3.12558,1.01913-3.88825a3.75444,3.75444,0,0,1,4.86032-.03319,23.48942,23.48942,0,0,1,3.522,3.72453,38.0229,38.0229,0,0,1,2.26628,3.5109c1.81742-2.50339,1.81742-2.50339,4.38406,1.70266a39.77312,39.77312,0,0,1,.85115-4.6216,5.58537,5.58537,0,0,1,1.68644-2.9649,3.40514,3.40514,0,0,1,3.12975-.10778c2.09815,1.5191,3.88165,3.465,5.85686,5.16438a38.75116,38.75116,0,0,0,5.23173,3.82426c-1.74071-1.88158-3.49332-3.75234-5.21374-5.65229a5.84146,5.84146,0,0,1-1.12114-1.61118,3.1475,3.1475,0,0,1,.109-1.34258,2.402,2.402,0,0,1,1.14943.20875q3.233,3.23614,6.36741,6.57013c0.85964,0.91438,1.51287,2.10925,3.26154,1.86645-1.90615-2.04489-3.64448-3.90981-5.3828-5.77471,1.86527,0.15816,3.474,1.51679,5.23494-.04766a2.42838,2.42838,0,0,1,1.42239.7489,20.05777,20.05777,0,0,0,1.44926,1.8843,2.55174,2.55174,0,0,0,1.49729-.21813c-0.40112-3.90481.55617-8.13652-3.27434-11.148a68.02794,68.02794,0,0,1-7.79454-7.25809,26.831,26.831,0,0,1-3.46756-5.4428c-0.621-1.13065-.77485-2.52411-1.42541-3.63088-1.71471-2.91727-1.41333-6.18075-1.89285-9.32161C63.4165,38.78048,58.86048,30.74669,47.6019,28.7501a21.67521,21.67521,0,0,1-2.80816-.95257c1.64876-.8513,2.6734-1.3232,3.64082-1.89235,1.72436-1.01449,3.32183-.26419,4.79284.45812,5.09293,2.50085,8.99425,6.09449,10.75976,11.743,1.31936,4.22081,3.09383,8.30153,4.35817,12.53642,0.56776,1.90167.36453,4.02951,0.55311,6.0508a3.75984,3.75984,0,0,0,.42,1.86917c2.643,3.37224,5.53369,6.56156,8.02492,10.03877,2.78445,3.88639,7.5288,6.33336,8.38692,11.65133,0.78011,4.83447-.00674,6.8036-4.01959,8.39479-0.94687.37545-1.83093,0.90678-2.77006,1.3045-3.39965,1.43964-6.03081.791-8.94282-1.72734-1.5264-1.32006-3.16582-2.509-4.70039-3.82019-0.3834-.32765-0.47-0.99691-0.84738-1.33852-0.86616-.78394-1.82752-1.46275-2.75021-2.18422a12.15921,12.15921,0,0,0-1.47657,2.13894c-0.88072,2.10965-1.50359,4.33533-2.50095,6.38235a2.48374,2.48374,0,0,1-2.26739.87564C53.08469,89.34081,50.83436,88.09982,48.15635,86.78171ZM47.40781,17.238a8.36034,8.36034,0,0,0,2.54254-1.51974,2.38549,2.38549,0,0,0-.11473-2.26694,10.91576,10.91576,0,0,0-4.61044-1.61164c-2.50636-.0463-3.49869,2.0129-2.41347,4.27825,0.2319,0.48418.39084,1.00332,0.7188,1.86,1.1317-.80417,2.03459-1.44573,3.17847-2.25855C46.95824,16.261,47.30314,17.01059,47.40781,17.238ZM16.45558,77.54686l0.48689,0.3712,6.34207-8.03871-0.24415-.19772Q19.748,73.61424,16.45558,77.54686ZM58.285,31.66678l0.28385-.35712q-4.02562-2.19588-8.05118-4.39175l-0.18477.34429Q54.30894,29.4645,58.285,31.66678Z"/><path d="M44.92838,36.27188A21.39393,21.39393,0,0,1,57.571,44.72527c2.36249,3.18611.37489,9.54059-3.32908,11.98434a16.81712,16.81712,0,0,0-1.99616,1.328,6.94735,6.94735,0,0,1-8.7292.66943c-5.56711-3.44365-9.15169-7.16858-7.68948-12.33a24.77139,24.77139,0,0,1,4.5862-8.45764C41.39715,36.69449,43.83114,36.63426,44.92838,36.27188ZM39.74621,49.23525c1.21029-3.38706,3.36555-4.81392,6.57424-4.0094,2.74967,0.68945,5.65383,1.37293,7.21325,4.4293a4.69176,4.69176,0,0,0,.701-2.11777c-0.02056-2.64334-2.85126-5.88024-5.49178-6.21577-1.35577-.17229-2.75553.0193-4.11831-0.12013C40.68561,40.7984,37.74807,44.62577,39.74621,49.23525ZM52.45331,55.02l0.67179,0.31111c3.208-2.95829,4.2687-5.21938,3.34193-7.48114C55.08779,50.31386,53.77058,52.66693,52.45331,55.02ZM43.81114,39.80948c1.91192,0.09791,3.73655.19134,5.75883,0.29493C47.29133,38.14888,46.20546,38.13076,43.81114,39.80948Z"/></g><text x="0" y="115" fill="#000000" font-size="5px" font-weight="bold" font-family="'Helvetica Neue', Helvetica, Arial-Unicode, Arial, Sans-serif">Created by Tatyana</text><text x="0" y="120" fill="#000000" font-size="5px" font-weight="bold" font-family="'Helvetica Neue', Helvetica, Arial-Unicode, Arial, Sans-serif">from the Noun Project</text></svg>